<svg xmlns="http://www.w3.org/2000/svg" width="32" height="31.999" viewBox="0 0 32 31.999">
  <path id="Path_43322" data-name="Path 43322" d="M1532,7745.67a16.2,16.2,0,0,0-16,16.4,16.372,16.372,0,0,0,10.94,15.569c.8.146,1.09-.354,1.09-.793,0-.386-.01-1.419-.02-2.786-4.45.98-5.39-2.2-5.39-2.2a4.254,4.254,0,0,0-1.78-2.4c-1.45-1.022.12-1,.12-1a3.381,3.381,0,0,1,2.45,1.69,3.358,3.358,0,0,0,4.66,1.367,3.47,3.47,0,0,1,1.01-2.191c-3.55-.417-7.29-1.826-7.29-8.108a6.4,6.4,0,0,1,1.65-4.4,5.973,5.973,0,0,1,.14-4.341s1.34-.438,4.4,1.68a14.75,14.75,0,0,1,8,0c3.04-2.118,4.38-1.68,4.38-1.68a6.136,6.136,0,0,1,.16,4.341,6.441,6.441,0,0,1,1.64,4.4c0,6.3-3.74,7.691-7.3,8.087a4,4,0,0,1,1.08,3.037c0,2.2-.02,3.965-.02,4.5,0,.428.28.939,1.1.783a16.447,16.447,0,0,0-5.02-31.953Z" transform="translate(-1516 -7745.671)" fill="#92a7ba"/>
</svg>
