<svg xmlns="http://www.w3.org/2000/svg" width="40.001" height="40.001" viewBox="0 0 40.001 40.001">
  <g id="Group_70803" data-name="Group 70803" transform="translate(-1460 -5029)">
    <path id="Subtraction_42" data-name="Subtraction 42" d="M-1026-11535a19.883,19.883,0,0,1-7.786-1.572,19.939,19.939,0,0,1-6.357-4.286,19.943,19.943,0,0,1-4.286-6.358A19.877,19.877,0,0,1-1046-11555a19.877,19.877,0,0,1,1.572-7.784,19.943,19.943,0,0,1,4.286-6.358,19.965,19.965,0,0,1,6.357-4.286A19.888,19.888,0,0,1-1026-11575a19.883,19.883,0,0,1,7.784,1.571,19.969,19.969,0,0,1,6.357,4.286,19.942,19.942,0,0,1,4.287,6.358A19.871,19.871,0,0,1-1006-11555a19.871,19.871,0,0,1-1.572,7.784,19.942,19.942,0,0,1-4.287,6.358,19.937,19.937,0,0,1-6.357,4.286A19.879,19.879,0,0,1-1026-11535Zm4.691-32h-2.453l-2.215,0c-8.233,0-9.613.013-9.848.069a2.843,2.843,0,0,0-1.313.744,2.642,2.642,0,0,0-.729,1.252c-.085.336-.087.614-.087,9.911v1.526c-.005,8.362-.005,8.362.215,8.813l.015.03.024.05a2.783,2.783,0,0,0,1.365,1.354l.085.039c.379.176.448.207,5.111.207l3.038,0h.841l1.422,0,9.662-.011.3-.1a2.834,2.834,0,0,0,1.8-1.8l.1-.3.012-9.659,0-1.989c.01-8.032.01-8.032-.245-8.513-.019-.036-.04-.076-.063-.121a2.81,2.81,0,0,0-1.188-1.186l-.1-.05-.021-.011C-1015.99-11566.972-1016.043-11567-1021.308-11567Zm3.867,21.24-8.564-.014-8.558-.009-.192-.128a1.2,1.2,0,0,1-.3-.306l-.11-.177-.015-5.183c0-2.367-.007-5.2.009-5.229a5.027,5.027,0,0,1,1.046-.047h1.025l-.084.375a7.485,7.485,0,0,0,.619,4.761,6.979,6.979,0,0,0,1.4,1.927,7.227,7.227,0,0,0,5.205,2.171,8.057,8.057,0,0,0,1.177-.089,7.182,7.182,0,0,0,3.781-1.827,7.313,7.313,0,0,0,2.195-3.613,7.3,7.3,0,0,0,.192-2.626,5.368,5.368,0,0,0-.192-1.014.036.036,0,0,1-.006-.031.027.027,0,0,1,.021-.016c.064-.006.365-.01.767-.01.608,0,1.248.008,1.266.021s.038,1.729.035,5.231l-.015,5.212-.142.2a1.163,1.163,0,0,1-.352.311l-.209.107Zm-8.5-4.618a4.706,4.706,0,0,1-1.438-.235,4.518,4.518,0,0,1-2.243-1.589,4.58,4.58,0,0,1,.09-5.7,4.659,4.659,0,0,1,3.094-1.685c.169-.016.332-.023.485-.023a4.637,4.637,0,0,1,.932.09,4.64,4.64,0,0,1,3.593,3.608,5.771,5.771,0,0,1,.049,1.525,4.706,4.706,0,0,1-2.405,3.451,4.945,4.945,0,0,1-1.238.459c-.085.011-.269.036-.418.061A3.434,3.434,0,0,1-1025.941-11550.378Zm7.148-9.237h-.29l-1.548-.006-.212-.113a1.123,1.123,0,0,1-.346-.328l-.142-.206,0-1.551c-.006-.876.015-1.626.038-1.712a.87.87,0,0,1,.476-.592l.235-.116,1.627.015,1.624.014.2.14c.388.273.4.313.41,2.086.015,1.75,0,1.828-.282,2.106C-1017.246-11559.646-1017.361-11559.615-1018.793-11559.615Z" transform="translate(2506 16604)" fill="#fff"/>
  </g>
</svg>
