<svg xmlns="http://www.w3.org/2000/svg" width="39.998" height="40.001" viewBox="0 0 39.998 40.001">
  <path id="Subtraction_43" data-name="Subtraction 43" d="M-1036-11535a19.875,19.875,0,0,1-7.784-1.572,19.931,19.931,0,0,1-6.357-4.286,19.937,19.937,0,0,1-4.286-6.358A19.877,19.877,0,0,1-1056-11555a19.877,19.877,0,0,1,1.571-7.784,19.937,19.937,0,0,1,4.286-6.358,19.963,19.963,0,0,1,6.357-4.286A19.88,19.88,0,0,1-1036-11575a19.888,19.888,0,0,1,7.786,1.571,19.967,19.967,0,0,1,6.357,4.286,19.942,19.942,0,0,1,4.286,6.358A19.876,19.876,0,0,1-1016-11555a19.876,19.876,0,0,1-1.572,7.784,19.942,19.942,0,0,1-4.286,6.358,19.935,19.935,0,0,1-6.357,4.286A19.883,19.883,0,0,1-1036-11535Zm4.447-20.056a2.168,2.168,0,0,1,2.238,1.41,7.755,7.755,0,0,1,.345,2.8v7.843h4.97l0-8.793c0-2.559-.338-4.237-1.1-5.44-.932-1.482-2.524-2.2-4.869-2.2-.063,0-.128,0-.191,0a5.259,5.259,0,0,0-4.518,2.592h-.067v-2.187h-4.77V-11543h4.973v-7.936C-1034.54-11552.973-1034.185-11555.055-1031.554-11555.055Zm-16.05-3.98V-11543h4.976v-16.035Zm2.484-7.965a2.888,2.888,0,0,0-2.882,2.888,2.887,2.887,0,0,0,2.882,2.887,2.9,2.9,0,0,0,2.885-2.887A2.89,2.89,0,0,0-1045.12-11567Z" transform="translate(1055.999 11575)" fill="#fff"/>
</svg>
