<svg xmlns="http://www.w3.org/2000/svg" width="40" height="40" viewBox="0 0 40 40">
  <g id="Raggruppa_51520" data-name="Raggruppa 51520" transform="translate(-1396 -5029)">
    <circle id="Ellisse_3" data-name="Ellisse 3" cx="20" cy="20" r="20" transform="translate(1396 5029)" fill="#232323"/>
    <path id="Tracciato_34858" data-name="Tracciato 34858" d="M-388.7-830.377l-1.914,1.926a.606.606,0,0,0-.215.56v14.174a.587.587,0,0,0,.215.56l1.873,1.926v.427h-9.412v-.413l1.938-1.976c.192-.2.192-.26.192-.56v-11.459l-5.386,14.369h-.726l-6.274-14.369v9.629a1.366,1.366,0,0,0,.349,1.106l2.52,3.207v.427H-412.7v-.427l2.518-3.207a1.325,1.325,0,0,0,.327-1.106v-11.136a.974.974,0,0,0-.3-.82l-2.241-2.839v-.427h6.962l5.373,12.393,4.729-12.386h6.635Z" transform="translate(1816.702 5869.804)" fill="#fff"/>
  </g>
</svg>
