<svg xmlns="http://www.w3.org/2000/svg" width="40" height="40" viewBox="0 0 40 40">
  <g id="Raggruppa_51518" data-name="Raggruppa 51518" transform="translate(-1274 -5029)">
    <circle id="Ellisse_7" data-name="Ellisse 7" cx="20" cy="20" r="20" transform="translate(1274 5029)" fill="#232323"/>
    <path id="Tracciato_34860" data-name="Tracciato 34860" d="M-384.266-793.377l-3.62,16.966c-.268,1.2-.988,1.5-1.995.929l-5.518-4.042-2.658,2.547a1.394,1.394,0,0,1-1.113.54l.391-5.581,10.227-9.184c.446-.389-.1-.61-.685-.221l-12.637,7.909-5.444-1.69c-1.183-.377-1.21-1.177.254-1.743l21.28-8.156c.987-.354,1.851.239,1.53,1.724Z" transform="translate(1690.186 5834.204)" fill="#fff"/>
  </g>
</svg>
