<svg xmlns="http://www.w3.org/2000/svg" width="40" height="40.001" viewBox="0 0 40 40.001">
  <path id="Subtraction_38" data-name="Subtraction 38" d="M-1047-11539a19.866,19.866,0,0,1-7.785-1.571,19.945,19.945,0,0,1-6.357-4.286,19.91,19.91,0,0,1-4.286-6.357A19.868,19.868,0,0,1-1067-11559a19.877,19.877,0,0,1,1.572-7.785,19.938,19.938,0,0,1,4.286-6.358,19.933,19.933,0,0,1,6.357-4.286A19.879,19.879,0,0,1-1047-11579a19.881,19.881,0,0,1,7.785,1.572,19.938,19.938,0,0,1,6.358,4.286,19.943,19.943,0,0,1,4.287,6.358A19.873,19.873,0,0,1-1027-11559a19.864,19.864,0,0,1-1.572,7.784,19.915,19.915,0,0,1-4.287,6.357,19.95,19.95,0,0,1-6.358,4.286A19.868,19.868,0,0,1-1047-11539Zm-11-12.037h0a14.777,14.777,0,0,0,7.52,2.036h.224a14.788,14.788,0,0,0,5.661-1.148,13.863,13.863,0,0,0,4.523-3.047,12.253,12.253,0,0,0,3.619-8.722c0-.194,0-.395-.015-.593a9.863,9.863,0,0,0,2.467-2.354,10.484,10.484,0,0,1-2.836.7,4.6,4.6,0,0,0,2.159-2.5,10.111,10.111,0,0,1-3.118,1.093,5.155,5.155,0,0,0-3.59-1.433,5.294,5.294,0,0,0-1.117.119,4.917,4.917,0,0,0-3.157,2.163,4.235,4.235,0,0,0-.528,3.3,14.428,14.428,0,0,1-10.142-4.751,4.241,4.241,0,0,0-.665,2.3,4.437,4.437,0,0,0,2.194,3.78,5.269,5.269,0,0,1-2.226-.575v.052a4.666,4.666,0,0,0,3.938,4.461,5.7,5.7,0,0,1-1.314.153,5.74,5.74,0,0,1-.906-.072,4.9,4.9,0,0,0,4.6,3.15,10.435,10.435,0,0,1-6.088,1.941h-.014C-1057.219-11550.981-1057.618-11551-1058-11551.037Z" transform="translate(1067 11579.001)" fill="#fff"/>
</svg>
