<svg xmlns="http://www.w3.org/2000/svg" width="40.001" height="40.001" viewBox="0 0 40.001 40.001">
  <path id="Subtraction_42" data-name="Subtraction 42" d="M-1026-11535a19.883,19.883,0,0,1-7.786-1.572,19.939,19.939,0,0,1-6.357-4.286,19.943,19.943,0,0,1-4.286-6.358A19.877,19.877,0,0,1-1046-11555a19.877,19.877,0,0,1,1.572-7.784,19.943,19.943,0,0,1,4.286-6.358,19.965,19.965,0,0,1,6.357-4.286A19.888,19.888,0,0,1-1026-11575a19.883,19.883,0,0,1,7.784,1.571,19.969,19.969,0,0,1,6.357,4.286,19.942,19.942,0,0,1,4.287,6.358A19.871,19.871,0,0,1-1006-11555a19.871,19.871,0,0,1-1.572,7.784,19.942,19.942,0,0,1-4.287,6.358,19.937,19.937,0,0,1-6.357,4.286A19.879,19.879,0,0,1-1026-11535Zm0-29c-.075,0-7.529.006-9.377.54a3.128,3.128,0,0,0-2.126,2.277,36.278,36.278,0,0,0-.5,6.2,36.265,36.265,0,0,0,.5,6.2,3.087,3.087,0,0,0,2.124,2.242c1.849.532,9.3.538,9.377.538s7.529-.006,9.377-.538a3.079,3.079,0,0,0,2.121-2.242,36.08,36.08,0,0,0,.5-6.2,36.055,36.055,0,0,0-.5-6.2h.006a3.136,3.136,0,0,0-2.124-2.277C-1018.471-11564-1025.921-11564-1026-11564Zm-2.458,12.828v-7.614l6.275,3.806-6.273,3.808Z" transform="translate(1046 11575)" fill="#fff"/>
</svg>
