<svg xmlns="http://www.w3.org/2000/svg" width="1967.522" height="1315.739" viewBox="0 0 1967.522 1315.739">
  <g id="Raggruppa_52029" data-name="Raggruppa 52029" transform="translate(-1163.515 -1990.165)">
    <path id="Path_64777" data-name="Path 64777" d="M3130.685,2180.875c-157.57-155.678-702.862,429.122-731.53,449.054a189.51,189.51,0,0,0-26.542,22.278c-44.072,44.608-59.2,101.441-75.545,162.356-14.7,54.46-29.729,112.33-65.821,164.12A296.178,296.178,0,0,1,2193,3023.215c-48.154,46.195-111.65,79.035-175.7,99.4-16.014,5.092-32.292,9.459-48.716,13.041-106.094,23.077-218.452,13.505-301.3-39.661-58.554-37.494-104.656-96.622-179.207-107.638-30.259-4.466-62.075.266-92.659,7.624a492.893,492.893,0,0,0-50.617,15.087c-74.087,26.507-143.97,70.658-180.887,121.411" fill="none" stroke="#be3144" stroke-miterlimit="10" stroke-width="1"/>
    <path id="Tracciato_64875" data-name="Tracciato 64875" d="M3128.653,2195.286c-150.788-142.494-694.958,364.09-736.917,401.828a192.906,192.906,0,0,0-26.268,22.821c-23.337,24.216-38.668,52.094-50.432,82.469-10.032,26.039-17.441,53.706-24.889,82.217-9.4,35.726-18.6,72.783-33.241,108.643a337.673,337.673,0,0,1-29.444,57.248,306.4,306.4,0,0,1-25.625,34.044q-5.176,5.96-10.657,11.646-10.806,11.264-22.679,21.6c-28.694,25.035-61.646,46.028-96.31,62.988a532.964,532.964,0,0,1-50.244,21.393c-15.618,5.727-31.548,10.735-47.681,14.956-15.6,4.066-31.4,7.4-47.288,9.95a462.79,462.79,0,0,1-77.921,5.9,409.461,409.461,0,0,1-68.032-6.488,366.783,366.783,0,0,1-49.076-12.409,312.738,312.738,0,0,1-59.066-26.308c-55.986-32.4-101.6-82.862-168.915-96.5q-6.422-1.295-13.113-2.13-3.873-.478-7.776-.77c-28.058-2.108-57.2,2.657-85.088,9.952q-3.363.88-6.709,1.816a433,433,0,0,0-43.43,14.666q-1.725.687-3.445,1.388a453.638,453.638,0,0,0-93.043,50.876c-31.893,22.461-58.848,48.369-77.246,75.6" fill="none" stroke="#be3144" stroke-miterlimit="10" stroke-width="1"/>
    <path id="Tracciato_64876" data-name="Tracciato 64876" d="M3126.621,2209.7c-144.006-129.31-687.053,299.059-742.305,354.6a196.847,196.847,0,0,0-25.993,23.363c-22.905,24.376-38.218,52.52-50.083,83.378-10.1,26.543-17.646,54.68-25.013,83.638-9.256,36.122-18,73.468-31.8,109.578a354.646,354.646,0,0,1-27.754,58.086,318.779,318.779,0,0,1-24.219,34.845q-4.9,6.129-10.1,12-10.252,11.631-21.558,22.4c-27.322,26.06-58.909,48.353-92.431,66.732a521.708,521.708,0,0,1-48.777,23.443q-22.833,9.543-46.647,16.871-22.977,7.012-46.6,11.763a442.757,442.757,0,0,1-77.478,8.534,406.08,406.08,0,0,1-68.227-4.64,385.608,385.608,0,0,1-49.4-10.9,330.214,330.214,0,0,1-59.759-23.818c-56.911-29.551-104.079-76.079-171.669-87.835q-6.462-1.111-13.178-1.79-3.891-.387-7.81-.6c-28.2-1.516-57.467,3.481-85.259,11.338q-3.354.951-6.687,1.962a385.259,385.259,0,0,0-42.975,15.916q-1.7.744-3.381,1.505a418.142,418.142,0,0,0-89.923,54.474c-30.405,23.517-55.858,50.514-73.276,78.328" fill="none" stroke="#be3144" stroke-miterlimit="10" stroke-width="1"/>
    <path id="Tracciato_64877" data-name="Tracciato 64877" d="M3124.589,2224.106c-137.225-116.125-679.148,234.028-747.692,307.378a201.092,201.092,0,0,0-25.718,23.906c-22.474,24.535-37.769,52.945-49.734,84.286-10.168,27.048-17.852,55.654-25.138,85.059-9.117,36.517-17.387,74.153-30.351,110.513a374.919,374.919,0,0,1-26.064,58.923,333.315,333.315,0,0,1-22.813,35.647q-4.628,6.3-9.547,12.357-9.7,12-20.437,23.191c-25.949,27.085-56.173,50.678-88.552,70.476a511.167,511.167,0,0,1-47.31,25.493,487.868,487.868,0,0,1-45.613,18.785,471.168,471.168,0,0,1-45.913,13.578,423.845,423.845,0,0,1-77.034,11.172,409.028,409.028,0,0,1-118.152-12.179,351.515,351.515,0,0,1-60.451-21.327c-57.837-26.7-106.563-69.295-174.424-79.168q-6.5-.93-13.244-1.45-3.907-.3-7.843-.425c-28.351-.924-57.735,4.3-85.43,12.723q-3.347,1.02-6.665,2.108a346.715,346.715,0,0,0-42.52,17.165q-1.664.8-3.318,1.624a387.911,387.911,0,0,0-86.8,58.07c-28.917,24.573-52.868,52.66-69.307,81.062" fill="none" stroke="#be3144" stroke-miterlimit="10" stroke-width="1"/>
    <path id="Tracciato_64878" data-name="Tracciato 64878" d="M3122.557,2238.516c-130.443-102.94-671.243,169-753.079,260.153a205.694,205.694,0,0,0-25.444,24.449c-22.043,24.7-37.318,53.37-49.385,85.2-10.236,27.551-18.058,56.627-25.262,86.479-8.977,36.912-16.78,74.838-28.906,111.448A399.025,399.025,0,0,1,2216.107,2866a350.457,350.457,0,0,1-21.406,36.448q-4.354,6.465-8.992,12.712-9.145,12.365-19.316,23.986c-24.578,28.11-53.437,53-84.673,74.22a500.833,500.833,0,0,1-45.844,27.543,471.493,471.493,0,0,1-44.579,20.7A455.108,455.108,0,0,1,1946.072,3077a405.968,405.968,0,0,1-76.591,13.809,399.965,399.965,0,0,1-68.617-.946,430.647,430.647,0,0,1-50.057-7.873,377.662,377.662,0,0,1-61.143-18.837c-58.762-23.845-109.048-62.512-177.179-70.5q-6.545-.746-13.309-1.109-3.926-.2-7.877-.252c-28.5-.332-58,5.126-85.6,14.108q-3.339,1.091-6.644,2.254a314.945,314.945,0,0,0-42.064,18.414q-1.633.862-3.254,1.742a362.316,362.316,0,0,0-83.682,61.668c-27.429,25.629-49.878,54.8-65.338,83.794" fill="none" stroke="#be3144" stroke-miterlimit="10" stroke-width="1"/>
    <path id="Tracciato_64879" data-name="Tracciato 64879" d="M3120.525,2252.926c-123.661-89.755-663.338,103.966-758.466,212.928a210.938,210.938,0,0,0-25.17,24.991c-21.611,24.855-36.868,53.8-49.036,86.1-10.3,28.056-18.263,57.6-25.386,87.9-8.837,37.308-16.172,75.523-27.461,112.383a427.848,427.848,0,0,1-22.683,60.6,370.449,370.449,0,0,1-20,37.249q-4.08,6.634-8.437,13.069-8.592,12.729-18.2,24.78a445.969,445.969,0,0,1-80.794,77.964,490.946,490.946,0,0,1-44.377,29.593,456.618,456.618,0,0,1-43.545,22.614,439.29,439.29,0,0,1-44.538,17.207,389.188,389.188,0,0,1-76.147,16.447,397.1,397.1,0,0,1-68.812.9,458.316,458.316,0,0,1-50.384-6.361,409.524,409.524,0,0,1-61.836-16.346c-59.687-20.992-111.531-55.729-179.934-61.835q-6.585-.564-13.374-.769-3.942-.112-7.91-.08c-28.643.26-58.272,5.95-85.773,15.494q-3.328,1.159-6.621,2.4a288.553,288.553,0,0,0-41.609,19.664q-1.6.92-3.19,1.86a385.336,385.336,0,0,0-141.93,151.792" fill="none" stroke="#be3144" stroke-miterlimit="10" stroke-width="1"/>
    <path id="Tracciato_64880" data-name="Tracciato 64880" d="M3118.493,2267.336c-116.88-76.57-655.433,38.935-763.853,165.7a216.5,216.5,0,0,0-24.895,25.534c-21.18,25.014-36.418,54.22-48.687,87.012-10.373,28.561-18.469,58.576-25.511,89.322-8.7,37.7-15.564,76.207-26.016,113.317a462.572,462.572,0,0,1-20.993,61.436,393.733,393.733,0,0,1-18.595,38.05q-3.807,6.8-7.882,13.425-8.039,13.095-17.074,25.574a449.869,449.869,0,0,1-76.915,81.708,481.8,481.8,0,0,1-42.91,31.643,443.027,443.027,0,0,1-42.511,24.529,424.537,424.537,0,0,1-43.85,19.02,373.553,373.553,0,0,1-75.7,19.086,394.723,394.723,0,0,1-69.007,2.747,490.435,490.435,0,0,1-50.711-4.849,449.113,449.113,0,0,1-62.528-13.855c-60.613-18.14-114.016-48.947-182.689-53.169q-6.625-.381-13.439-.43-3.961-.019-7.944.094a275.307,275.307,0,0,0-85.944,16.879q-3.321,1.23-6.6,2.546a266.476,266.476,0,0,0-41.154,20.913q-1.572.98-3.127,1.978a322.912,322.912,0,0,0-77.442,68.862,358.579,358.579,0,0,0-57.4,89.26" fill="none" stroke="#be3144" stroke-miterlimit="10" stroke-width="1"/>
    <path id="Tracciato_64881" data-name="Tracciato 64881" d="M3116.461,2281.747c-110.1-63.386-647.529-26.1-769.24,118.477A222.741,222.741,0,0,0,2322.6,2426.3c-20.749,25.174-35.968,54.646-48.338,87.922-10.441,29.064-18.674,59.549-25.636,90.742-8.557,38.1-14.955,76.892-24.57,114.252a504.594,504.594,0,0,1-19.3,62.274,420.768,420.768,0,0,1-17.189,38.851q-3.532,6.972-7.327,13.78-7.485,13.462-15.952,26.369a454.907,454.907,0,0,1-73.037,85.452,473.284,473.284,0,0,1-41.443,33.693,430.553,430.553,0,0,1-41.477,26.443,411.389,411.389,0,0,1-43.162,20.835,359.212,359.212,0,0,1-75.261,21.723,392.184,392.184,0,0,1-69.2,4.594c-17.305-.285-34.372-1.435-51.038-3.337a497.706,497.706,0,0,1-63.221-11.364c-61.538-15.286-116.5-42.164-185.443-44.5q-6.667-.2-13.5-.09-3.979.072-7.978.267a277.68,277.68,0,0,0-86.115,18.264q-3.312,1.3-6.577,2.692a247.818,247.818,0,0,0-40.7,22.163q-1.541,1.036-3.063,2.095c-29.122,19.783-53.739,44.6-74.322,72.459-22.963,28.8-40.906,61.242-53.428,91.994" fill="none" stroke="#be3144" stroke-miterlimit="10" stroke-width="1"/>
    <path id="Tracciato_64882" data-name="Tracciato 64882" d="M3114.429,2296.157c-103.317-50.2-639.624-91.127-774.627,71.252a229.607,229.607,0,0,0-24.347,26.619c-20.317,25.333-35.518,55.071-47.989,88.83a753.937,753.937,0,0,0-25.76,92.163c-8.417,38.493-14.348,77.577-23.125,115.187a555.81,555.81,0,0,1-17.613,63.111q-7.028,20.344-15.783,39.653-3.258,7.14-6.772,14.136-6.932,13.828-14.831,27.163a461.027,461.027,0,0,1-69.157,89.2,466.015,466.015,0,0,1-39.977,35.743,419.9,419.9,0,0,1-40.443,28.358,399.23,399.23,0,0,1-42.475,22.649,346.062,346.062,0,0,1-74.817,24.361c-22.991,4.445-46.446,6.176-69.4,6.44-17.386.179-34.561-.475-51.364-1.825a557.869,557.869,0,0,1-63.914-8.873c-62.464-12.433-118.984-35.381-188.2-35.836q-6.706-.015-13.569.251-4,.163-8.01.44c-29.083,2.036-59.078,8.419-86.287,19.649q-3.3,1.37-6.556,2.839a232.037,232.037,0,0,0-40.243,23.411q-1.51,1.1-3,2.214c-28.431,20.833-51.852,46.9-71.2,76.055-21.475,29.856-37.916,63.388-49.459,94.728" fill="none" stroke="#be3144" stroke-miterlimit="10" stroke-width="1"/>
    <path id="Tracciato_64883" data-name="Tracciato 64883" d="M3112.4,2310.567c-96.535-37.016-631.719-156.158-780.014,24.027a236.89,236.89,0,0,0-24.072,27.162c-19.886,25.492-35.068,55.5-47.64,89.738a752.769,752.769,0,0,0-25.885,93.584c-8.278,38.888-13.74,78.262-21.679,116.122a619.957,619.957,0,0,1-15.924,63.949q-6.368,20.688-14.377,40.454-2.984,7.308-6.217,14.492-6.377,14.195-13.71,27.957a468.2,468.2,0,0,1-65.278,92.939,459.057,459.057,0,0,1-38.511,37.794,410.382,410.382,0,0,1-39.408,30.272,388.278,388.278,0,0,1-41.787,24.464,334.068,334.068,0,0,1-74.374,27c-22.975,5.121-46.52,7.412-69.592,8.288-17.466.641-34.75.484-51.691-.313a634.619,634.619,0,0,1-64.606-6.383c-63.39-9.58-121.468-28.6-190.954-27.169q-6.749.168-13.634.591-4.014.255-8.044.612c-29.229,2.628-59.347,9.243-86.459,21.035q-3.3,1.438-6.533,2.985a218.557,218.557,0,0,0-39.788,24.66q-1.479,1.155-2.936,2.332c-27.738,21.884-49.964,49.192-68.081,79.653-19.987,30.911-34.926,65.533-45.49,97.46" fill="none" stroke="#be3144" stroke-miterlimit="10" stroke-width="1"/>
    <path id="Tracciato_64884" data-name="Tracciato 64884" d="M3110.365,2324.977c-89.753-23.832-623.814-221.189-785.4-23.2a245.149,245.149,0,0,0-23.8,27.7c-19.455,25.652-34.618,55.922-47.291,90.648a751.925,751.925,0,0,0-26.009,95c-8.138,39.282-13.132,78.946-20.234,117.056-3.893,22.005-8.372,43.581-14.233,64.786-3.807,14.022-8.1,27.763-12.972,41.256q-2.709,7.476-5.661,14.847-5.825,14.562-12.589,28.752a476.422,476.422,0,0,1-61.4,96.683,453.492,453.492,0,0,1-37.044,39.844,402.555,402.555,0,0,1-38.374,32.187,378.545,378.545,0,0,1-41.1,26.278,323.308,323.308,0,0,1-73.93,29.636c-22.96,5.8-46.594,8.646-69.787,10.134-17.547,1.1-34.939,1.443-52.018,1.2-22.282-.344-44.09-1.66-65.3-3.892-64.314-6.727-123.952-21.815-193.708-18.5q-6.789.35-13.7.931-4.031.346-8.077.785c-29.375,3.22-59.615,10.066-86.63,22.42q-3.287,1.509-6.511,3.131a207.006,207.006,0,0,0-39.333,25.91q-1.449,1.212-2.872,2.45c-27.046,22.934-48.077,51.485-64.961,83.249-18.5,31.968-31.935,67.679-41.52,100.194" fill="none" stroke="#be3144" stroke-miterlimit="10" stroke-width="1"/>
    <path id="Tracciato_64885" data-name="Tracciato 64885" d="M3108.333,2339.387c-82.972-10.647-615.909-286.22-790.789-70.423a253.875,253.875,0,0,0-23.523,28.247c-19.023,25.811-34.168,56.347-46.942,91.556a751.481,751.481,0,0,0-26.133,96.426c-8,39.678-12.524,79.631-18.789,117.991-3.444,22.277-7.363,44.117-12.543,65.624-3.367,14.252-7.184,28.255-11.566,42.057q-2.435,7.644-5.106,15.2-5.271,14.928-11.468,29.546a485.631,485.631,0,0,1-57.52,100.427,449.273,449.273,0,0,1-35.578,41.894,395.929,395.929,0,0,1-37.34,34.1,369.733,369.733,0,0,1-40.412,28.092c-22.722,13.469-47.2,24.745-73.487,32.274-22.944,6.473-46.668,9.882-69.982,11.982-17.627,1.567-35.129,2.4-52.345,2.711q-33.671.569-65.991-1.4c-65.24-3.874-126.436-15.032-196.464-9.836q-6.828.534-13.764,1.272-4.05.438-8.111.958c-29.521,3.812-59.884,10.889-86.8,23.805q-3.279,1.578-6.49,3.277a197.115,197.115,0,0,0-38.877,27.159q-1.418,1.272-2.808,2.568c-26.354,23.985-46.19,53.779-61.841,86.847-17.011,33.024-28.945,69.824-37.551,102.927" fill="none" stroke="#be3144" stroke-miterlimit="10" stroke-width="1"/>
    <path id="Tracciato_64886" data-name="Tracciato 64886" d="M3106.3,2353.8c-76.19,2.538-608-351.251-796.176-117.648a263.5,263.5,0,0,0-23.249,28.789c-18.591,25.972-33.717,56.773-46.592,92.465a751.125,751.125,0,0,0-26.258,97.847c-7.859,40.073-11.916,80.316-17.344,118.926-3,22.55-6.354,44.653-10.853,66.461-2.928,14.482-6.27,28.749-10.16,42.859q-2.16,7.813-4.551,15.559-4.718,15.293-10.346,30.34a495.767,495.767,0,0,1-53.642,104.171,445.885,445.885,0,0,1-34.111,43.944,390.789,390.789,0,0,1-36.306,36.016,362.6,362.6,0,0,1-39.724,29.906c-22.4,14.4-46.713,26.6-73.043,34.912-22.93,7.149-46.743,11.117-70.178,13.828-17.708,2.031-35.318,3.362-52.672,4.223q-33.919,1.655-66.684,1.09c-66.165-1.021-128.92-8.25-199.218-1.17q-6.87.716-13.83,1.612-4.067.53-8.144,1.131c-29.667,4.4-60.152,11.712-86.972,25.19q-3.27,1.648-6.468,3.423a188.613,188.613,0,0,0-38.422,28.409q-1.388,1.329-2.745,2.686c-25.662,25.034-44.3,56.072-58.72,90.443-15.523,34.081-25.955,71.97-33.582,105.66" fill="none" stroke="#be3144" stroke-miterlimit="10" stroke-width="1"/>
    <path id="Tracciato_64887" data-name="Tracciato 64887" d="M3104.269,2368.208c-69.408,15.722-600.1-416.283-801.563-164.874a273.9,273.9,0,0,0-22.974,29.332c-18.161,26.131-33.268,57.2-46.244,93.374a751.2,751.2,0,0,0-26.383,99.267c-7.718,40.468-11.308,81-15.9,119.861-2.547,22.822-5.345,45.189-9.163,67.3-2.488,14.711-5.356,29.241-8.754,43.659q-1.887,7.983-4,15.915-4.164,15.66-9.225,31.136a506.649,506.649,0,0,1-49.763,107.914,443.618,443.618,0,0,1-32.644,45.994,386.952,386.952,0,0,1-35.272,37.93,356.281,356.281,0,0,1-39.037,31.721c-22.082,15.337-46.227,28.455-72.6,37.549-22.914,7.826-46.818,12.352-70.373,15.675-17.788,2.494-35.507,4.322-53,5.736q-34.167,2.739-67.376,3.58c-67.091,1.832-131.4-1.467-201.973,7.5q-6.91.9-13.9,1.952-4.084.621-8.178,1.3c-29.814,5-60.421,12.536-87.143,26.576q-3.263,1.718-6.446,3.569a181.289,181.289,0,0,0-37.967,29.658q-1.356,1.388-2.681,2.8c-24.97,26.085-42.416,58.367-55.6,94.041-14.035,35.137-22.965,74.115-29.612,108.393" fill="none" stroke="#be3144" stroke-miterlimit="10" stroke-width="1"/>
    <path id="Tracciato_64888" data-name="Tracciato 64888" d="M3102.237,2382.618c-62.627,28.907-592.2-481.314-806.95-212.1a285.371,285.371,0,0,0-22.7,29.875c-17.729,26.29-32.817,57.622-45.894,94.282a751.224,751.224,0,0,0-26.508,100.688c-7.579,40.864-10.7,81.686-14.453,120.8-2.1,23.095-4.337,45.725-7.472,68.136-2.05,14.941-4.443,29.735-7.348,44.461q-1.614,8.151-3.442,16.271-3.609,16.026-8.1,31.93a518.371,518.371,0,0,1-45.884,111.658,442.469,442.469,0,0,1-31.177,48.044,384.309,384.309,0,0,1-34.238,39.845,351.351,351.351,0,0,1-38.349,33.535c-21.762,16.27-45.742,30.31-72.156,40.187-22.9,8.5-46.892,13.587-70.568,17.522-17.868,2.957-35.7,5.28-53.326,7.247-22.944,2.55-45.642,4.532-68.069,6.071-68.016,4.685-133.888,5.317-204.728,16.164q-6.951,1.08-13.96,2.292-4.1.713-8.211,1.476c-29.96,5.588-60.689,13.359-87.315,27.961q-3.254,1.788-6.423,3.716a174.959,174.959,0,0,0-37.512,30.907q-1.326,1.446-2.617,2.921c-24.278,27.136-40.529,60.661-52.48,97.638-12.547,36.194-19.975,76.261-25.643,111.126" fill="none" stroke="#be3144" stroke-miterlimit="10" stroke-width="1"/>
    <path id="Tracciato_64889" data-name="Tracciato 64889" d="M3100.205,2397.028c-55.845,42.092-584.29-546.345-812.337-259.324a298.064,298.064,0,0,0-22.426,30.417c-17.3,26.45-32.367,58.048-45.545,95.191-10.987,33.1-20.32,67.34-26.632,102.11-7.439,41.258-10.092,82.37-13.008,121.73-1.649,23.367-3.328,46.261-5.782,68.974-1.61,15.171-3.529,30.227-5.942,45.262q-1.34,8.319-2.886,16.627-3.057,16.392-6.983,32.724a530.833,530.833,0,0,1-42.005,115.4,442.449,442.449,0,0,1-29.711,50.094,382.807,382.807,0,0,1-33.2,41.759,347.067,347.067,0,0,1-37.662,35.349c-21.442,17.205-45.256,32.167-71.712,42.825-22.883,9.178-46.966,14.822-70.763,19.369-17.949,3.42-35.885,6.24-53.653,8.76-23.109,3.273-46.03,6.08-68.761,8.561-68.941,7.538-136.372,12.1-207.483,24.83q-6.992,1.265-14.025,2.633-4.121.8-8.245,1.649c-30.106,6.18-60.957,14.182-87.486,29.346q-3.244,1.857-6.4,3.862a169.59,169.59,0,0,0-37.056,32.156q-1.294,1.5-2.554,3.04c-23.585,28.186-38.641,62.954-49.359,101.235-11.059,37.249-16.984,78.406-21.673,113.859" fill="none" stroke="#be3144" stroke-miterlimit="10" stroke-width="1"/>
    <path id="Tracciato_64890" data-name="Tracciato 64890" d="M3098.173,2411.438c-49.063,55.277-576.385-611.376-817.724-306.549a311.529,311.529,0,0,0-22.151,30.96c-16.867,26.609-31.918,58.473-45.2,96.1-11.055,33.6-20.525,68.314-26.756,103.53-7.3,41.653-9.484,83.055-11.563,122.665-1.2,23.64-2.319,46.8-4.092,69.811-1.171,15.4-2.616,30.721-4.536,46.064q-1.065,8.487-2.331,16.982-2.5,16.76-5.862,33.519c-8.113,40.411-20.6,80.9-38.126,119.146a443.36,443.36,0,0,1-28.244,52.144,382.312,382.312,0,0,1-32.17,43.674,343.94,343.94,0,0,1-36.974,37.163c-21.122,18.139-44.771,34.022-71.269,45.463-22.868,9.854-47.04,16.057-70.958,21.216-18.029,3.883-36.075,7.2-53.98,10.271-23.275,4-46.418,7.628-69.453,11.052-69.867,10.391-138.857,18.883-210.238,33.5q-7.033,1.446-14.091,2.973-4.137.9-8.278,1.821c-30.252,6.773-61.226,15.006-87.657,30.732q-3.237,1.927-6.38,4.008a164.923,164.923,0,0,0-36.6,33.405q-1.265,1.564-2.49,3.158c-22.894,29.236-36.754,65.248-46.239,104.832-9.571,38.306-13.994,80.552-17.7,116.593" fill="none" stroke="#be3144" stroke-miterlimit="10" stroke-width="1"/>
    <path id="Path_64821" data-name="Path 64821" d="M3096.141,2425.848c-46.454,75.218-677.047-831.341-889.835-225.263-11.124,34.107-20.731,69.288-26.881,104.951-7.16,42.049-8.876,83.74-10.118,123.6-1.256,39.942-1.973,78.515-5.532,117.514-1.567,17.155-3.693,34.394-6.517,51.651-6.741,41.436-17.866,83.225-34.247,122.89-21.491,51.869-52.077,100.138-94.2,138.76-20.8,19.073-44.286,35.877-70.826,48.1-22.852,10.53-47.114,17.292-71.153,23.063-18.11,4.346-36.264,8.159-54.307,11.784-94.54,19.039-187.864,33.769-283.138,55.706q-11.224,2.584-22.468,5.307c-32.883,7.966-66.581,17.219-94.186,36.271a160.952,160.952,0,0,0-38.573,37.931c-22.2,30.286-34.866,67.542-43.118,108.429-8.083,39.362-11,82.7-13.735,119.325" fill="none" stroke="#be3144" stroke-miterlimit="10" stroke-width="1"/>
  </g>
</svg>
