<svg xmlns="http://www.w3.org/2000/svg" width="334.215" height="24" viewBox="0 0 334.215 24">
  <g id="Raggruppa_51535" data-name="Raggruppa 51535" transform="translate(-734 -524)">
    <path id="Tracciato_64012" data-name="Tracciato 64012" d="M303.872,815.329H276.442l1.089-2.743,1.089-2.742a1.554,1.554,0,0,1,.545-.67,1.4,1.4,0,0,1,.784-.277h21.412a3.337,3.337,0,0,1,3.016,1.489,4,4,0,0,1,.041,3.592l-.274.676Zm58.162-.676.286-.676a3.992,3.992,0,0,0,.021-3.592,3.273,3.273,0,0,0-2.99-1.489H337.934a1.406,1.406,0,0,0-.784.276,1.584,1.584,0,0,0-.554.665l-1.139,2.746-1.138,2.745h27.429Zm-29.1-2.54,1.331-3.217H310.277a1.4,1.4,0,0,0-.782.276,1.569,1.569,0,0,0-.548.665l-1.116,2.746-1.115,2.745h24.89ZM443.2,814.4l.383-.855a3.651,3.651,0,0,0,.1-3.286,2.913,2.913,0,0,0-2.7-1.362H419.276a1.479,1.479,0,0,0-.812.283,1.69,1.69,0,0,0-.586.683l-1.184,2.7-1.184,2.7h27.31Zm2.327.933h27.309l1.469-3.218,1.469-3.218H453.126a7.218,7.218,0,0,0-3.946,1.37,8.265,8.265,0,0,0-2.862,3.307l-.395.88Zm69.764-.055H542.6l.366-.766.366-.766a3.865,3.865,0,0,0,.211-3.468,2.973,2.973,0,0,0-2.808-1.437H523.027a7.356,7.356,0,0,0-3.974,1.37,8.525,8.525,0,0,0-2.932,3.307l-.413.88Zm-187.265,8.7,1.292-3.123,1.293-3.123H305.742v.007h-.19L302.7,824.75l-2.851,7.017a.746.746,0,0,0,.005.668.611.611,0,0,0,.555.277h23.878l1.252-3.026,1.253-3.026H310.951l.55-1.343.549-1.344h15.978Zm23.6-5.911-1.813,4.313-1.813,4.314h-9.6l1.8-4.31,1.8-4.309H332.95l-1.787,4.309-1.787,4.31-1.054,2.542-1.054,2.543a.745.745,0,0,0,0,.665.6.6,0,0,0,.551.275H349.01a8.209,8.209,0,0,0,4.554-1.611,9.379,9.379,0,0,0,3.245-3.877l1.938-4.581,1.938-4.581h-9.053Zm39.492,0-1.865,4.313-1.865,4.314h-5.259l1.857-4.314,1.858-4.313H376.8l-1.846,4.313-1.846,4.314h-4.949L370,822.374l1.84-4.313h-9.053l-1.941,4.581-1.941,4.581a4.335,4.335,0,0,0-.036,3.881,3.487,3.487,0,0,0,3.2,1.607h26.25a8.292,8.292,0,0,0,4.58-1.607,9.545,9.545,0,0,0,3.3-3.881l1.993-4.581,1.993-4.581h-9.053Zm-27.186-2.728H373l1.091-2.558,1.091-2.559a1.037,1.037,0,0,0,.009-.934.85.85,0,0,0-.776-.387h-6.474a1.905,1.905,0,0,0-1.058.371,2.161,2.161,0,0,0-.752.894l-1.1,2.586Zm14.027,0h9.051l.007,0,.005-.007,1.092-2.534,1.092-2.534a1.068,1.068,0,0,0,.013-.961.867.867,0,0,0-.8-.4h-6.4a1.98,1.98,0,0,0-1.093.382,2.241,2.241,0,0,0-.779.922l-1.1,2.567Zm27.175,17.056a1.65,1.65,0,0,0,.564-.667l2.968-6.855,2.968-6.855-4.537.025-4.537.024-2.95,6.855-2.95,6.855a.74.74,0,0,0-.01.664.592.592,0,0,0,.548.271l3.574-.019,3.575-.02A1.434,1.434,0,0,0,405.14,832.389Zm11.455,0a1.656,1.656,0,0,0,.566-.667l2.993-6.855,2.992-6.855-4.537.025-4.537.024-2.973,6.855-2.973,6.855a.739.739,0,0,0-.013.664.59.59,0,0,0,.547.271l3.574-.019,3.575-.02A1.437,1.437,0,0,0,416.594,832.389Zm18.2,0a1.667,1.667,0,0,0,.571-.667l3.03-6.855,3.03-6.855-4.538.025-4.537.024-3.011,6.855-3.012,6.855a.739.739,0,0,0-.016.664.587.587,0,0,0,.546.271l3.575-.019,3.574-.02A1.443,1.443,0,0,0,434.792,832.389Zm-31.069-17.014,4.536-.024,4.536-.025.007,0,.005-.006,1.1-2.534,1.1-2.534a1.062,1.062,0,0,0,.014-.959.864.864,0,0,0-.8-.393l-3.2.018-3.206.017a2,2,0,0,0-1.1.387,2.259,2.259,0,0,0-.783.924l-1.1,2.567Zm83.823-.1,4.537-.024,4.537-.025.007,0,.006-.007,1.162-2.534,1.162-2.534a1.061,1.061,0,0,0,.038-.959.842.842,0,0,0-.788-.393L495,808.81l-3.206.018a2.043,2.043,0,0,0-1.1.386,2.348,2.348,0,0,0-.806.924l-1.169,2.567Zm-95.242.062h9.051l.007,0,.005-.007,1.1-2.534,1.1-2.534a1.068,1.068,0,0,0,.017-.961.862.862,0,0,0-.794-.4h-6.4a1.985,1.985,0,0,0-1.094.382,2.256,2.256,0,0,0-.783.922l-1.109,2.567ZM302.253,819.2l.291-.717.291-.716H275.489l-.044.108-.043.108h-.013l-2.739,6.9-2.74,6.9a.745.745,0,0,0,.012.665.616.616,0,0,0,.555.275h8.072l1.613-4.033,1.613-4.034h.076l.721,4.034.715,4.033,6.046-.016,6.046-.016a1.484,1.484,0,0,0,1-.473,1.141,1.141,0,0,0,.379-.94l-.587-3.355-.592-3.356a9.336,9.336,0,0,0,6.669-5.36Zm169.207-1.184h-.12a.06.06,0,0,0-.008-.042.045.045,0,0,0-.039-.018H457.185a1.74,1.74,0,0,0-.952.33,2.006,2.006,0,0,0-.693.8l-.821,1.816-.821,1.817a.91.91,0,0,0-.03.816.713.713,0,0,0,.665.339h5.247l-.531,1.183-.53,1.183h-9l1.826-4.1,1.826-4.1-4.537.025-4.538.024-2.1,4.75-2.1,4.75a4.041,4.041,0,0,0-.1,3.634,3.2,3.2,0,0,0,2.983,1.489h15.5l0-.007,0-.007.6,0,.6,0a7.979,7.979,0,0,0,4.337-1.531,9.226,9.226,0,0,0,3.161-3.656l2.141-4.747Zm20.2,7.976,1.905-4.157,1.905-4.156-4.539.024-4.538.025-2.231,4.895-2.231,4.895a4.1,4.1,0,0,0-.148,3.678,3.193,3.193,0,0,0,3,1.507h.37l-.023.048-.022.048h19.515l1.595-3.4,1.6-3.4H491.658Zm49.809-8.244-1.013.006-1.013.005-.053-.007a.325.325,0,0,0-.055,0H514.208l-.012.024-.011.025h-.073l-3.263,7.032-3.263,7.031a.742.742,0,0,0-.032.664.571.571,0,0,0,.539.272l3.575-.019,3.575-.02a1.473,1.473,0,0,0,.8-.28,1.722,1.722,0,0,0,.587-.667l1.736-3.72,1.736-3.72h9.2l-1.758,3.745-1.758,3.744a.742.742,0,0,0-.036.664.567.567,0,0,0,.538.272l3.575-.019,3.575-.02a1.482,1.482,0,0,0,.8-.28,1.738,1.738,0,0,0,.591-.667l3.321-7.031Zm31.276-3.347.429-.88a3.688,3.688,0,0,0,.23-3.307,2.806,2.806,0,0,0-2.664-1.37H548.085l-1.54,3.218-1.539,3.217h27.31Zm29.883.876.007-.007.443-.893.443-.893a3.663,3.663,0,0,0,.259-3.281,2.754,2.754,0,0,0-2.631-1.359h-17.47a8.28,8.28,0,0,0-4.431,1.517,9.7,9.7,0,0,0-3.315,3.664l-.3.622-.3.623v.007l.006,0h27.29Zm-34.4,9.3a1.364,1.364,0,0,1-.055.129l-.622,1.278-.623,1.277a9.985,9.985,0,0,1-3.4,3.768,8.432,8.432,0,0,1-4.528,1.562H545.076c-.036.007-.073.018-.109.026a.511.511,0,0,1-.108.015l-3.575.02-3.575.019a.565.565,0,0,1-.536-.271.741.741,0,0,1,.038-.664l3.326-7.032,3.327-7.031,4.539-.025,4.539-.024h18.655l-.372.65-.373.649a2.183,2.183,0,0,1-.316.42,2.559,2.559,0,0,1-.422.356s-.216.135-.466.3-.536.356-.673.471a2.416,2.416,0,0,0-.5.646.845.845,0,0,0-.1.794c.035.057.136.238.228.4s.176.319.176.319a.577.577,0,0,1,.068.294.957.957,0,0,1-.079.351l-.243.587-.243.586h0C568.258,824.486,568.245,824.527,568.23,824.57Zm-10.312,1.278.211-.435a.583.583,0,0,0,.035-.519.437.437,0,0,0-.416-.215h-7.125a1.154,1.154,0,0,0-.623.215,1.367,1.367,0,0,0-.465.519l-.21.435-.209.435a.58.58,0,0,0-.034.518.436.436,0,0,0,.415.215h7.121a1.158,1.158,0,0,0,.623-.215,1.363,1.363,0,0,0,.466-.518Zm39.372,0h-.024l1.066-2.149,1.066-2.149a3.113,3.113,0,0,0,.222-2.781,2.325,2.325,0,0,0-2.223-1.152H574.706a.988.988,0,0,0-.529.181,1.159,1.159,0,0,0-.4.438l-.184.378-.184.378a4.5,4.5,0,0,0-.291,4.022,3.378,3.378,0,0,0,3.219,1.666h11.726a.355.355,0,0,1,.072.119.493.493,0,0,1-.005.339l-.027.054-.027.054a1.281,1.281,0,0,1-.2.277,2.541,2.541,0,0,1-.386.325H570.162l-1.426,2.922-1.425,2.923a.773.773,0,0,0-.051.686.574.574,0,0,0,.548.284h22.379a5.726,5.726,0,0,0,2.9-.924,7.456,7.456,0,0,0,2.358-2.281h.028l.069-.139.069-.139c.023-.041.048-.08.073-.119s.049-.08.07-.12l.766-1.547Z" transform="translate(464.16 -284.792)" fill="#fff"/>
  </g>
</svg>             
